<?xml version="1.0" encoding="utf-8"?>
<!-- Generator: Adobe Illustrator 16.0.3, SVG Export Plug-In . SVG Version: 6.00 Build 0)  -->
<!DOCTYPE svg PUBLIC "-//W3C//DTD SVG 1.1//EN" "http://www.w3.org/Graphics/SVG/1.1/DTD/svg11.dtd">
<svg version="1.1" id="Layer_1" xmlns="http://www.w3.org/2000/svg" xmlns:xlink="http://www.w3.org/1999/xlink" x="0px" y="0px"
	 width="113.386px" height="113.386px" viewBox="0 0 113.386 113.386" enable-background="new 0 0 113.386 113.386"
	 xml:space="preserve">
<path fill-rule="evenodd" clip-rule="evenodd" d="M106.685,49.649c-2.525-0.639-3.526,5.827-5.021,10.042s-3.176-0.753-4.306-4.303
	c-1.127-3.55-5.444-12.193-8.609-16.502c-3.165-4.309-9.983-5.896-15.784-3.584c-5.567,2.216-9.167,8.217-12.494,14.298
	c-0.14,0.257-0.28,0.511-0.417,0.768c-3.448,6.334,0.715-0.718,0.715-0.718s-2.586,5.135-7.173,10.76
	c-4.586,5.625-7.003,6.139-11.478,4.306c-4.478-1.833-2.271-7.508-2.87-14.348c-0.601-6.843-2.688-9.94-6.457-14.351
	c-3.771-4.408-6.092-2.335-8.608,0c-2.52,2.338-3.019,3.199-4.306,3.587c-1.287,0.388-3.208,1.515-7.89,5.739
	c-4.683,4.224-6.563,10.652-8.609,16.502c-2.049,5.847,2.046,14.389,6.454,17.217c4.411,2.829,9.776-1.617,14.351-5.739
	c4.571-4.122,5.631,0.143,7.89,2.87c2.26,2.727,2.583,2.636,8.609,2.151c6.025-0.481,6.083-3.494,11.478-7.172
	c5.395-3.681,4.639-0.301,7.894,5.021c3.252,5.322,4.527,3.328,9.327,2.87c4.796-0.458,6.965-3.348,10.042-7.891
	c3.077-4.545,4.189-4.279,5.739-0.718c1.553,3.558,3.292,6.299,8.608,8.608c5.319,2.309,7.31-2.309,9.327-4.306
	c2.017-1.994,2.829-4.75,3.588-6.455c0.762-1.708,2.525-4.521,3.587-10.763C111.332,51.302,109.209,50.289,106.685,49.649z
	 M26.334,63.279c-2.228,3.789-8.001,6.866-10.045,1.437c-2.043-5.433-4.183-12.418,0-15.066s7.304-4.843,10.763,0
	C29.861,53.582,28.562,59.493,26.334,63.279z M72.965,67.585c-3.206,0.344-4.23-6.399-5.021-10.045
	c-0.792-3.646,4.078-10.366,6.457-12.915c2.379-2.545,4.884,5.144,5.021,12.196C79.56,63.877,76.173,67.24,72.965,67.585z"/>
</svg>
