<?xml version="1.0" encoding="utf-8"?>
<!-- Generator: Adobe Illustrator 16.0.3, SVG Export Plug-In . SVG Version: 6.00 Build 0)  -->
<!DOCTYPE svg PUBLIC "-//W3C//DTD SVG 1.1//EN" "http://www.w3.org/Graphics/SVG/1.1/DTD/svg11.dtd">
<svg version="1.1" id="Layer_1" xmlns="http://www.w3.org/2000/svg" xmlns:xlink="http://www.w3.org/1999/xlink" x="0px" y="0px"
	 width="113.386px" height="113.386px" viewBox="0 0 113.386 113.386" enable-background="new 0 0 113.386 113.386"
	 xml:space="preserve">
<path fill-rule="evenodd" clip-rule="evenodd" d="M84.79,61.441c1.567-4.926-2.241-10.074-5.374-8.06
	c-3.134,2.015-9.849,3.582-17.012,3.582s-8.06,2.241-9.852-3.582c-1.789-5.818-2.686-37.608-2.686-41.19
	c0-15.667-11.641-14.101-14.326-7.163c-2.685,6.941-1.119,22.164-0.896,41.19c0.226,19.03,2.015,38.953,0,41.19
	c-2.015,2.241-5.148,6.715-6.267,11.641c-1.119,4.926,4.478,3.134,8.059,0c3.582-3.133,7.386,2.237,11.642,6.267
	c4.251,4.03,12.311,2.015,17.011,0.896c4.7-1.118,9.626-2.685,15.223-7.163c5.597-4.478,5.148-11.193,3.582-19.7
	C82.327,70.845,83.223,66.367,84.79,61.441z M67.774,85.62c-0.893,1.566-2.237,2.237-6.267,2.685s-4.926,0-8.059-2.685
	c-3.134-2.689-1.119-4.478-0.896-8.956c0.226-4.478-1.789-9.626,3.582-8.956c5.374,0.674,11.418-1.119,11.641,4.478
	C67.938,76.219,68.67,84.053,67.774,85.62z"/>
</svg>
