<?xml version="1.0" encoding="utf-8"?>
<!-- Generator: Adobe Illustrator 16.0.3, SVG Export Plug-In . SVG Version: 6.00 Build 0)  -->
<!DOCTYPE svg PUBLIC "-//W3C//DTD SVG 1.1//EN" "http://www.w3.org/Graphics/SVG/1.1/DTD/svg11.dtd">
<svg version="1.1" id="Layer_1" xmlns="http://www.w3.org/2000/svg" xmlns:xlink="http://www.w3.org/1999/xlink" x="0px" y="0px"
	 width="113.386px" height="113.386px" viewBox="0 0 113.386 113.386" enable-background="new 0 0 113.386 113.386"
	 xml:space="preserve">
<path fill-rule="evenodd" clip-rule="evenodd" d="M43.38,39.016c0.923,5.32,3.132,15.659,11.138,23.669
	c8.004,8.005,8.004,5.915,12.531,2.782c4.527-3.133,11.484-3.133,5.569,6.962c-5.915,10.096-13.229,16.361-19.494,19.494
	c-6.267,3.133-16.356,4.873-23.67-6.963C22.146,73.127,18.877,63.518,18.316,54.33c-0.555-9.189-4.175-7.518-6.957-4.175
	c-2.787,3.342-13.37,0.833-6.962-5.569c6.402-6.407,20.328-23.669,27.845-29.238c7.517-5.569,10.021-4.736,25.063-4.182
	C72.34,11.727,82.639,15.347,93.5,12.56c10.861-2.782,17.823,1.948,13.925,8.356c-3.897,6.401-11.138,4.453-15.313,8.351
	c-4.181,3.897-13.093,8.912-25.063,8.356C55.072,37.067,42.263,32.609,43.38,39.016z"/>
</svg>
