<?xml version="1.0" encoding="utf-8"?>
<!-- Generator: Adobe Illustrator 16.0.3, SVG Export Plug-In . SVG Version: 6.00 Build 0)  -->
<!DOCTYPE svg PUBLIC "-//W3C//DTD SVG 1.1//EN" "http://www.w3.org/Graphics/SVG/1.1/DTD/svg11.dtd">
<svg version="1.1" id="Layer_1" xmlns="http://www.w3.org/2000/svg" xmlns:xlink="http://www.w3.org/1999/xlink" x="0px" y="0px"
	 width="113.386px" height="113.386px" viewBox="0 0 113.386 113.386" enable-background="new 0 0 113.386 113.386"
	 xml:space="preserve">
<path fill-rule="evenodd" clip-rule="evenodd" d="M79.524,67.21c-8.395,0-15.163-0.273-15.163-1.084
	c0-0.811,4.063-7.853,4.332-17.327c0.269-9.479-10.831-10.558-20.574-5.416c-9.747,5.143-11.1,7.58-15.163,3.248
	c-4.063-4.332-2.578-22.778-3.248-28.154c-0.436-3.468-0.22-13.215-4.332-15.163c-4.116-1.948-9.315,2.384-14.079,6.496
	c-4.768,4.116-1.731,8.667,2.164,11.915c3.9,3.248,3.521,10.29,3.252,18.411c-0.273,8.122-0.815,17.596-4.336,21.658
	c-3.516,4.063,2.437,3.79,6.5,5.416c4.063,1.622,3.248,12.184,0,15.158c-3.248,2.979-9.474,2.71-9.748,6.5
	c-0.269,3.79,6.5,1.895,15.163,4.332c8.664,2.437,4.332,10.558,10.827,15.163c6.5,4.6,13.81,0.811,19.495-1.084
	c5.684-1.895,6.769-8.122,9.747-14.079c2.979-5.958,8.122-8.664,12.995-8.664s11.373,1.895,23.826-6.5
	C113.636,69.647,87.915,67.21,79.524,67.21z M39.451,65.042c-0.864-5.195-2.596-5.416,4.336-7.579
	c6.927-2.168,10.179-1.948,9.743,3.248c-0.432,5.2,1.084,8.231-4.332,8.664C43.787,69.81,40.319,70.242,39.451,65.042z
	 M60.03,88.869c-2.384,3.463-3.248,4.763-7.58,3.248c-4.332-1.516-8.015-4.979,1.08-8.664C57.747,81.748,62.414,85.4,60.03,88.869z"
	/>
</svg>
