<?xml version="1.0" encoding="utf-8"?>
<!-- Generator: Adobe Illustrator 16.0.3, SVG Export Plug-In . SVG Version: 6.00 Build 0)  -->
<!DOCTYPE svg PUBLIC "-//W3C//DTD SVG 1.1//EN" "http://www.w3.org/Graphics/SVG/1.1/DTD/svg11.dtd">
<svg version="1.1" id="Layer_1" xmlns="http://www.w3.org/2000/svg" xmlns:xlink="http://www.w3.org/1999/xlink" x="0px" y="0px"
	 width="113.386px" height="113.386px" viewBox="0 0 113.386 113.386" enable-background="new 0 0 113.386 113.386"
	 xml:space="preserve">
<path fill-rule="evenodd" clip-rule="evenodd" d="M68.723,19.862c6.814,0.873,13.281-3.146,16.077-4.895
	c2.796-1.746,2.62-3.668,0-4.192c-2.622-0.526-3.671-1.399-6.99-4.895c-3.319-3.492-4.019-4.018-6.291-1.396
	c-2.27,2.619-2.446,1.746-4.892,0.7c-2.446-1.05-5.068,0.173-8.387,2.096c-3.322,1.922-5.241,0-9.086,1.396
	c-3.845,1.399-5.068,2.449-6.291-1.396c-1.223-3.845-3.319-3.668-6.291-1.399c-2.969,2.272-2.619,3.845,1.399,7.69
	c4.018,3.842,3.842,7.337,3.495,14.677c-0.35,7.337,1.223,14.501,5.591,20.269c4.368,5.765,8.387,4.192,12.579,0
	c4.195-4.195,7.514-4.195,11.185,2.096c3.669,6.291,4.019,13.105-2.099,19.569c-6.115,6.467-20.968,15.9-29.355,21.668
	c-8.387,5.765-11.006,9.437-12.579,15.377s5.242,2.619,6.288,0c1.049-2.622,0-2.622,4.895-6.991
	c4.892-4.368,15.9-10.482,26.56-17.473c10.659-6.99,18.52-17.3,20.269-31.451c1.746-14.154-9.086-17.823-16.776-17.473
	c-7.687,0.35-7.337,3.146-10.483,1.396c-3.145-1.746-1.089-8.398-1.396-11.183C55.445,17.764,61.909,18.986,68.723,19.862z"/>
</svg>
