<?xml version="1.0" encoding="utf-8"?>
<!-- Generator: Adobe Illustrator 16.0.3, SVG Export Plug-In . SVG Version: 6.00 Build 0)  -->
<!DOCTYPE svg PUBLIC "-//W3C//DTD SVG 1.1//EN" "http://www.w3.org/Graphics/SVG/1.1/DTD/svg11.dtd">
<svg version="1.1" id="Layer_1" xmlns="http://www.w3.org/2000/svg" xmlns:xlink="http://www.w3.org/1999/xlink" x="0px" y="0px"
	 width="113.386px" height="113.386px" viewBox="0 0 113.386 113.386" enable-background="new 0 0 113.386 113.386"
	 xml:space="preserve">
<path fill-rule="evenodd" clip-rule="evenodd" d="M87.75,52.123c-6.555-7.101-14.93-10.014-10.197-13.839
	c4.735-3.823,14.565-13.107,7.284-19.663c-7.284-6.555-16.569-8.559-21.121-5.826c-4.552,2.729-8.375,0-12.382,1.455
	c-4.006,1.458-5.461,2.548-9.468,0.729c-4.006-1.82-2.368-8.739-8.01-10.923c-5.645-2.187-13.839-1.274-13.11,1.455
	c0.729,2.732,6.007-0.181,8.01,3.642c2.003,3.823,0.184,7.646-2.913,10.197c-3.094,2.548-1.455,6.007-2.184,11.652
	c-0.729,5.643,2.368,16.204,1.455,18.937c-0.91,2.729-5.642,7.827-3.639,9.465c2.003,1.639,5.826-1.274,10.194,0.729
	c4.371,2.003,10.378,1.639,15.294-2.913c4.917-4.552,7.83-10.923,5.826-12.381c-2-1.455-4.732,0.364-6.552,2.913
	c-1.822,2.548-3.097,3.097-5.1-2.184c-2.003-5.281-1.819-13.475-1.455-19.666c0,0,14.382-1.091,18.208-3.639
	c4.552,1.274,10.378,2.003,12.381,4.368c2,2.368,7.465,5.1-0.729,9.468c-8.194,4.371-11.836,9.104-12.382,11.652
	c-0.545,2.548,2.368,4.188,9.469,7.284c7.1,3.094,12.562,12.927,12.381,21.121c-0.184,8.194-1.639,8.92-8.739,11.652
	c-7.104,2.732-4.736,4.552-10.927,5.826c-6.19,1.274-16.933,1.823-16.75,6.555c0.181,4.733,8.01,13.11,19.663,9.468
	c11.653-3.642,24.034-16.933,27.676-26.218C93.576,74.153,94.305,59.224,87.75,52.123z M70.271,95.819
	c-1.36,2.99-6.191,6.739-10.198,5.829c-4.006-0.913-4.552-1.458,0-3.642C64.626,95.819,71.181,93.819,70.271,95.819z"/>
</svg>
