<?xml version="1.0" encoding="utf-8"?>
<!-- Generator: Adobe Illustrator 16.0.3, SVG Export Plug-In . SVG Version: 6.00 Build 0)  -->
<!DOCTYPE svg PUBLIC "-//W3C//DTD SVG 1.1//EN" "http://www.w3.org/Graphics/SVG/1.1/DTD/svg11.dtd">
<svg version="1.1" id="Layer_1" xmlns="http://www.w3.org/2000/svg" xmlns:xlink="http://www.w3.org/1999/xlink" x="0px" y="0px"
	 width="113.386px" height="113.386px" viewBox="0 0 113.386 113.386" enable-background="new 0 0 113.386 113.386"
	 xml:space="preserve">
<path fill-rule="evenodd" clip-rule="evenodd" d="M86.121,84.8c1.809-11.296-0.449-14.915-5.42-12.657
	c-4.971,2.265-5.42,7.229-12.649,0c-7.229-7.229-7.229-34.337-7.229-34.337s0-1.809,10.84-5.42
	c10.847-3.618,20.334-6.78,27.115-12.656c6.773-5.869-2.714-12.201-16.268-14.458s-29.821,1.36-37.955-1.809
	C36.421,0.3,26.935,9.794,19.249,16.119c-7.678,6.325-0.448,6.325-5.42,16.268c-4.971,9.936,4.067,17.165,7.229,25.298
	c3.162,8.134-0.449,18.077,7.229,32.535s14.01,19.878,19.878,19.878c5.876,0,17.172,1.809,28.924-1.802
	C88.834,104.678,84.319,96.096,86.121,84.8z"/>
</svg>
