<?xml version="1.0" encoding="utf-8"?>
<!-- Generator: Adobe Illustrator 16.0.3, SVG Export Plug-In . SVG Version: 6.00 Build 0)  -->
<!DOCTYPE svg PUBLIC "-//W3C//DTD SVG 1.1//EN" "http://www.w3.org/Graphics/SVG/1.1/DTD/svg11.dtd">
<svg version="1.1" id="Layer_1" xmlns="http://www.w3.org/2000/svg" xmlns:xlink="http://www.w3.org/1999/xlink" x="0px" y="0px"
	 width="113.386px" height="113.386px" viewBox="0 0 113.386 113.386" enable-background="new 0 0 113.386 113.386"
	 xml:space="preserve">
<path fill-rule="evenodd" clip-rule="evenodd" d="M97.572,23.357c-6.71-5.454-12.792-6.502-20.97-3.355
	c-8.178,3.143-15.308,10.905-18.454,18.454c-3.144,7.546,7.341,17.403,14.26,20.97c6.922,3.563,14.888,5.871,13.42,8.386
	c-1.467,2.516-5.451,3.983-12.581,5.871c-7.13,1.888-20.97,1.051-37.745,0.84c-16.775-0.208-26.424,7.969-31.035,13.42
	c-4.614,5.454,1.676,5.874,5.031,5.874s6.082,2.307,8.39,0.836c2.307-1.468,6.499-3.771,13.42-2.516
	c6.918,1.259,12.373,0.84,24.325,0c11.953-0.839,22.018-6.29,27.68-10.905c5.662-4.611,10.693-9.646,13.42-8.386
	c2.727,1.256,2.935,1.887,6.71,0.836c3.775-1.048,3.986-1.887,4.194-6.71c0.212-4.823,1.468-6.499,0-12.581
	c-1.467-6.082-0.123-11.618,2.516-14.26C112.46,37.825,104.282,28.808,97.572,23.357z M92.538,46.842
	c-7.338-2.936-12.581-4.615-15.936-7.55c-3.355-2.935,2.936-10.693,9.226-7.55c5.959,2.979,13.42,8.39,13.42,10.905
	C99.248,45.167,99.879,49.777,92.538,46.842z"/>
</svg>
