<?xml version="1.0" encoding="utf-8"?>
<!-- Generator: Adobe Illustrator 16.0.3, SVG Export Plug-In . SVG Version: 6.00 Build 0)  -->
<!DOCTYPE svg PUBLIC "-//W3C//DTD SVG 1.1//EN" "http://www.w3.org/Graphics/SVG/1.1/DTD/svg11.dtd">
<svg version="1.1" id="Layer_1" xmlns="http://www.w3.org/2000/svg" xmlns:xlink="http://www.w3.org/1999/xlink" x="0px" y="0px"
	 width="113.386px" height="113.386px" viewBox="0 0 113.386 113.386" enable-background="new 0 0 113.386 113.386"
	 xml:space="preserve">
<path fill-rule="evenodd" clip-rule="evenodd" d="M103.5,67.523c-4.75-4.058-10.199-6.952-19.125-8.115
	c-8.918-1.157-14.368-0.582-14.479-5.214c-0.118-4.632,1.621-7.879,2.313-12.741c0.699-4.867-0.229-8.696-4.632-9.271
	c-4.404-0.582-6.253,0.928-9.847,1.156c-3.593,0.229-5.214-2.202-4.057-8.69c1.156-6.488-2.666-13.211-6.377-17.38
	c-3.705-4.175-12.395-5.56-14.479-3.476c-2.084,2.084-6.142,6.952-8.109,10.428c-1.973,3.476-3.711,7.416,0.575,11.584
	c4.287,4.175,12.513,6.841,16.805,9.271c4.287,2.431,6.6,10.428-1.163,12.747c-7.762,2.313-12.277,1.967-17.961,1.738
	c-5.671-0.235-11.467,0.464-13.322,3.476c-1.85,3.012-4.515,5.214,1.738,5.789c6.259,0.582,14.021,1.045,20.856-0.575
	c6.841-1.621,10.082-3.94,13.329-5.214c3.241-1.274,4.287-0.928,5.214-5.214c0.921-4.292,0.575-4.75,4.632-5.214
	c4.058-0.464,9.271,0.111,8.69,2.895c-0.575,2.783-3.012,8.69-3.476,12.748c-0.464,4.057-0.692,8.572,9.847,11.009
	c10.545,2.431,22.136,4.979,23.175,9.847c1.045,4.868,0.353,9.271-4.051,13.329c-4.404,4.051-11.009,11.003-14.485,12.741
	s-7.533,3.594-5.795,4.633c1.738,1.045,3.012,1.392,6.377-1.738c3.829-3.569,10.422-6.253,15.636-10.428
	c5.22-4.169,7.069-6.952,10.434-11.585C105.12,81.427,108.25,71.574,103.5,67.523z"/>
</svg>
