<?xml version="1.0" encoding="utf-8"?>
<!-- Generator: Adobe Illustrator 16.0.3, SVG Export Plug-In . SVG Version: 6.00 Build 0)  -->
<!DOCTYPE svg PUBLIC "-//W3C//DTD SVG 1.1//EN" "http://www.w3.org/Graphics/SVG/1.1/DTD/svg11.dtd">
<svg version="1.1" id="Layer_1" xmlns="http://www.w3.org/2000/svg" xmlns:xlink="http://www.w3.org/1999/xlink" x="0px" y="0px"
	 width="113.386px" height="113.386px" viewBox="0 0 113.386 113.386" enable-background="new 0 0 113.386 113.386"
	 xml:space="preserve">
<path fill-rule="evenodd" clip-rule="evenodd" d="M84.738,73.531c-13.286,0.994-10.63-9.967-8.305-14.948s6.251-16.421,9.968-24.909
	c4.649-10.63-12.624-18.272-21.591-21.591c-8.968-3.325-14.286,7.305-23.253,14.941c-8.967,7.643-18.604,13.955-28.233,18.272
	C3.693,49.616,1.7,66.219,3.362,75.193c1.655,8.967,12.616,13.948,26.571,19.928c13.948,5.974,28.565,4.649,43.175,6.643
	c14.617,1.993,31.558-14.617,36.539-26.571C114.627,63.232,98.023,72.531,84.738,73.531z M53.18,60.246
	c-7.967,0.331-25.24-5.98-19.929-13.286c5.19-7.143,22.253-4.656,26.571,1.656C64.141,54.927,61.153,59.915,53.18,60.246z"/>
</svg>
