<?xml version="1.0" encoding="utf-8"?>
<!-- Generator: Adobe Illustrator 16.0.3, SVG Export Plug-In . SVG Version: 6.00 Build 0)  -->
<!DOCTYPE svg PUBLIC "-//W3C//DTD SVG 1.1//EN" "http://www.w3.org/Graphics/SVG/1.1/DTD/svg11.dtd">
<svg version="1.1" id="Layer_1" xmlns="http://www.w3.org/2000/svg" xmlns:xlink="http://www.w3.org/1999/xlink" x="0px" y="0px"
	 width="113.386px" height="113.386px" viewBox="0 0 113.386 113.386" enable-background="new 0 0 113.386 113.386"
	 xml:space="preserve">
<path fill-rule="evenodd" clip-rule="evenodd" d="M103.897,64.054c-3.404,3.269-6.668,1.5-11.433-0.95s-1.497-6.672,1.904-11.437
	c3.404-4.761,7.625-8.165,8.576-13.336c0.954-5.172-2.857-7.079-10.479-9.529s-10.343,3.404-14.29,7.622
	c-3.951,4.222-8.766,6.098-12.387,8.576c-3.621,2.477-7.622,16.198-7.622,16.198c-0.954,3.675-1.907,5.307-5.718,7.622
	s-6.125,0.954-10.479-1.903c-4.357-2.861-1.225-5.99,0-8.576s7.076-9.801,8.572-15.244c1.5-5.447-3.4-9.122-12.382-11.437
	c-8.987-2.311-10.891,2.586-13.341,6.672c-2.45,4.083-3.811,4.218-9.529,7.622c-5.714,3.404-7.211,6.533-10.479,11.433
	c-3.269,4.9-1.908,6.804,0,9.529c1.907,2.722,4.357,2.857,9.529,7.622c5.172,4.761,13.883,9.118,23.82,10.479
	c9.932,1.361,18.647-7.079,21.912-10.479c3.268-3.404,5.171-2.726,10.479,0.95c5.312,3.675,13.887,5.99,21.916,5.718
	c8.029-0.271,14.019-8.168,17.151-15.244C112.745,58.882,107.301,60.79,103.897,64.054z M35.296,53.575
	c-3.536,2.314-5.443,4.082-8.576,2.857c-3.129-1.225-7.211-5.85,0.954-7.622C32.481,47.771,38.835,51.261,35.296,53.575z
	 M83.889,52.622c-3.264,0.954-5.714,1.36-7.622-0.954c-1.907-2.311-1.089-4.625,0.954-5.714c5.377-2.869,9.254-1.361,9.525,0.954
	C87.021,49.217,87.157,51.667,83.889,52.622z"/>
</svg>
