<?xml version="1.0" encoding="utf-8"?>
<!-- Generator: Adobe Illustrator 16.0.3, SVG Export Plug-In . SVG Version: 6.00 Build 0)  -->
<!DOCTYPE svg PUBLIC "-//W3C//DTD SVG 1.1//EN" "http://www.w3.org/Graphics/SVG/1.1/DTD/svg11.dtd">
<svg version="1.1" id="Layer_1" xmlns="http://www.w3.org/2000/svg" xmlns:xlink="http://www.w3.org/1999/xlink" x="0px" y="0px"
	 width="113.386px" height="113.386px" viewBox="0 0 113.386 113.386" enable-background="new 0 0 113.386 113.386"
	 xml:space="preserve">
<path fill-rule="evenodd" clip-rule="evenodd" d="M84.221,39.8c-3.098,0-11.799,1.125-17.359,0.618
	c-6.819-0.618-3.254-5.734-0.621-8.06c2.636-2.324,7.596-6.199,10.54-13.638c2.946-7.439-3.254-13.794-9.299-15.5
	c-6.044-1.705-12.399,2.48-15.5,8.061c-3.101,5.578-2.326,13.948-3.721,16.738c-1.395,2.79-2.013,3.101-0.618,5.581
	c1.393,2.479,0.308,5.58-1.862,6.819c-2.17,1.241-12.71,1.551-17.98,3.721c-5.27,2.169-2.634,6.044,3.101,6.201
	c5.734,0.154,11.004-0.931,16.121-0.621c5.113,0.311,4.803,7.129,4.959,18.6c0.154,11.469-0.464,31.618,0,38.439
	c0.464,6.819,4.185,2.79,4.96,0.618c0.774-2.169,2.169-9.453,3.1-19.218c0.929-9.766,3.565-24.645,4.339-31
	c0.774-6.354,2.169-6.665,4.959-6.201c2.791,0.467,5.271,0.156,7.44-1.239s4.496-0.621,9.301-3.101
	C90.886,44.139,87.322,39.8,84.221,39.8z M58.181,22.438c-0.928-5.424-0.774-10.23,2.48-9.92c3.257,0.311,7.286,4.186,6.822,9.92
	c-0.27,3.327-2.016,8.834-4.339,8.06C60.818,29.724,59.112,27.865,58.181,22.438z"/>
</svg>
