<?xml version="1.0" encoding="utf-8"?>
<!-- Generator: Adobe Illustrator 16.0.3, SVG Export Plug-In . SVG Version: 6.00 Build 0)  -->
<!DOCTYPE svg PUBLIC "-//W3C//DTD SVG 1.1//EN" "http://www.w3.org/Graphics/SVG/1.1/DTD/svg11.dtd">
<svg version="1.1" id="Layer_1" xmlns="http://www.w3.org/2000/svg" xmlns:xlink="http://www.w3.org/1999/xlink" x="0px" y="0px"
	 width="113.386px" height="113.386px" viewBox="0 0 113.386 113.386" enable-background="new 0 0 113.386 113.386"
	 xml:space="preserve">
<path fill-rule="evenodd" clip-rule="evenodd" d="M86.341,33.37c-3.81-1.415-8.751-0.536-12.513-1.632
	c-2.61-0.759-2.176-1.413-3.263-3.263c-1.089-1.849,1.304-3.482,2.176-5.439c0.87-1.959,0.217-3.919-1.634-6.531
	c-1.849-2.61-0.108-4.353,1.634-3.808c1.74,0.544,4.133,1.523,4.353,5.441c0.217,3.917-0.87,5.548,0.542,5.984
	c1.415,0.436,3.81-2.285,5.439-3.808c1.632-1.523,2.285-3.374,2.176-6.529c-0.108-3.157-2.176-6.748-6.526-9.794
	c-4.353-3.046-7.835,0.653-10.881,2.721s-3.266,1.74-5.442,1.087c-2.176-0.653-4.353,1.634-7.073,4.897
	c-2.719,3.265-6.637,8.596-9.792,11.426c-3.157,2.829-1.959,5.441-2.176,8.703c-0.219,3.266-1.089,2.612-4.897,3.81
	c-3.811,1.196-8.269,2.176-12.513,3.808c-4.244,1.631-1.849,2.176,0.545,3.808c2.393,1.632,6.635-0.544,11.423-1.631
	c4.789-1.089,4.68-1.089,4.897,2.176c0.217,3.265,0.434,25.464-1.089,34.277c-1.523,8.812-1.849,9.792-0.542,11.969
	c1.304,2.176,1.087,3.48,0.542,7.616c-0.542,4.135-0.87,7.618,0,7.618c0.872,0,1.198-3.482,1.634-5.441
	c0.434-1.957,1.631-5.44,2.176-8.161c0.542-2.721,0.979-3.808,1.631-7.073c0.653-3.266,1.198-7.616,2.176-11.968
	s2.502-9.25,2.721-13.058c0.217-3.808,3.046-11.643,2.176-14.691c-0.87-3.046,0.653-4.461,2.721-4.353
	c2.065,0.111,1.74,2.612,1.087,8.707c-0.653,6.093-0.217,21.001-1.087,30.468c-0.872,9.464-0.219,23.828,0,27.747
	c0.217,3.917,3.7,1.415,5.984,0c2.285-1.415,2.829-4.897,3.265-10.339c0.434-5.439-0.11-13.166,1.087-19.04
	c1.198-5.875,0.544-13.168,0-20.131c-0.545-6.965,1.198-13.71,1.631-16.323c0.436-2.612,5.442-1.743,9.25-1.632
	c3.808,0.108,6.854-0.544,9.792-2.721C90.911,36.091,90.149,34.785,86.341,33.37z M57.505,31.738
	c-1.523-0.219-2.83-0.219-2.176-4.351c0.653-4.135,1.415-7.401,2.176-7.618c0.762-0.217,1.415,1.198,1.634,4.897
	C59.356,28.367,59.028,31.955,57.505,31.738z"/>
</svg>
