<?xml version="1.0" encoding="utf-8"?>
<!-- Generator: Adobe Illustrator 16.0.3, SVG Export Plug-In . SVG Version: 6.00 Build 0)  -->
<!DOCTYPE svg PUBLIC "-//W3C//DTD SVG 1.1//EN" "http://www.w3.org/Graphics/SVG/1.1/DTD/svg11.dtd">
<svg version="1.1" id="Layer_1" xmlns="http://www.w3.org/2000/svg" xmlns:xlink="http://www.w3.org/1999/xlink" x="0px" y="0px"
	 width="113.386px" height="113.386px" viewBox="0 0 113.386 113.386" enable-background="new 0 0 113.386 113.386"
	 xml:space="preserve">
<path fill-rule="evenodd" clip-rule="evenodd" d="M83.543,3.846c-12.961-1.467-38.874-1.224-48.896,0
	c-10.021,1.223-7.823,7.823-8.554,14.667c-0.736,6.849-3.178,9.047-4.889,18.337s1.224,15.155,6.112,21.998
	c4.889,6.849,20.531-2.198,24.445-4.889c3.909-2.686,6.6-1.955,8.555,2.447c1.955,4.402,2.69,27.867,1.223,34.223
	c-1.467,6.356-8.311,3.666-17.114,0c-8.798-3.666-16.134-13.2-23.222-19.556c-7.092-6.356-9.535-6.356-12.225-3.666
	c0,0-5.62,9.042-3.666,14.667c1.955,5.62,6.113,11.002,11.001,11.002c4.889,0,7.823,5.864,13.444,12.22
	c5.625,6.356,16.87,5.381,23.227,4.889c6.351-0.487,12.956-3.422,15.885-6.107c2.935-2.691,4.158-6.356,8.56-8.56
	c4.396-2.198,2.935-9.534,2.442-20.78c-0.488-11.245,2.934-12.956,3.67-20.779c0.731-7.819-4.387-14.016-4.894-20.78
	c-0.731-9.778,3.914-8.067,13.448-8.555c9.535-0.487,12.469-6.356,15.891-12.22C111.41,6.537,96.499,5.313,83.543,3.846z
	 M50.538,40.516c-5.869-1.223-4.645-2.198-8.554-6.112c-3.915-3.909,0-10.509,6.107-8.555c5.988,1.915,5.625,1.467,6.112,7.331
	C54.696,39.049,56.407,41.74,50.538,40.516z"/>
</svg>
