<?xml version="1.0" encoding="utf-8"?>
<!-- Generator: Adobe Illustrator 16.0.3, SVG Export Plug-In . SVG Version: 6.00 Build 0)  -->
<!DOCTYPE svg PUBLIC "-//W3C//DTD SVG 1.1//EN" "http://www.w3.org/Graphics/SVG/1.1/DTD/svg11.dtd">
<svg version="1.1" id="Layer_1" xmlns="http://www.w3.org/2000/svg" xmlns:xlink="http://www.w3.org/1999/xlink" x="0px" y="0px"
	 width="113.386px" height="113.386px" viewBox="0 0 113.386 113.386" enable-background="new 0 0 113.386 113.386"
	 xml:space="preserve">
<path fill-rule="evenodd" clip-rule="evenodd" d="M101.702,15.751c-7.352,0.589-8.959-2.936-18.384-3.675
	c-7.502-0.589-19.121,0.44-23.531,2.941c-4.414,2.499-5.589,7.648-9.561,9.561c-3.971,1.909-0.882,5.733-2.941,8.824
	c-2.059,3.088,1.03,9.411,4.411,13.971c3.384,4.56,11.619,1.176,15.443-1.469c3.824-2.648,5.736-4.707,6.619,0.733
	c0.883,5.443,4.414,17.062-0.733,22.062c-5.15,5-10.296,0-13.974-2.941c-3.677-2.941-7.205-3.381-9.56-5.147
	c-2.352-1.766-4.264-4.854-10.293-7.355c-12.208-5.44-24.27,3.384-29.417,9.561c-5.146,6.176-7.941,17.795-6.619,22.798
	c1.326,5,4.854,11.766,11.766,14.707c6.915,2.941,9.12-0.296,14.71-3.678c5.586-3.381,15.293-10.296,18.384-15.443
	c3.088-5.146-4.854-1.323-11.766,3.677c-6.915,5-9.71,3.381-14.71,1.469s-6.766-8.971-5.883-13.971
	c2.795-11.619,11.473-11.326,19.121-8.824c7.648,2.499,17.945,14.118,24.267,16.179c6.326,2.059,13.385-0.883,16.916-4.414
	c3.528-3.531,10.146-9.707,11.029-16.179c0.883-6.469-0.146-21.326-1.472-27.208c-1.322-5.883,3.091-4.118,8.827-3.678
	c5.733,0.443,8.824-2.499,13.971-6.619C113.468,17.516,109.057,15.165,101.702,15.751z M68.611,37.813
	c-2.941,0.589-5.883,1.176-8.088-3.678c-2.208-4.854-0.589-9.411,2.941-9.557c3.528-0.15,5-0.589,6.616,3.674
	C71.845,32.906,71.552,37.227,68.611,37.813z"/>
</svg>
