<?xml version="1.0" encoding="utf-8"?>
<!-- Generator: Adobe Illustrator 16.0.3, SVG Export Plug-In . SVG Version: 6.00 Build 0)  -->
<!DOCTYPE svg PUBLIC "-//W3C//DTD SVG 1.1//EN" "http://www.w3.org/Graphics/SVG/1.1/DTD/svg11.dtd">
<svg version="1.1" id="Layer_1" xmlns="http://www.w3.org/2000/svg" xmlns:xlink="http://www.w3.org/1999/xlink" x="0px" y="0px"
	 width="113.386px" height="113.386px" viewBox="0 0 113.386 113.386" enable-background="new 0 0 113.386 113.386"
	 xml:space="preserve">
<path fill-rule="evenodd" clip-rule="evenodd" d="M83.339,69.891c-9.167,2.622-9.167-5.237-12.223-13.97
	c-3.055-8.733,0.434-13.971,8.733-20.956c8.293-6.985-3.496-12.663-13.97-12.222c-10.481,0.434-10.844-9.835-19.215-15.719
	c-11.789-8.3-21.389-3.055-27.941,5.237c-6.552,8.293,5.678,23.578,13.971,29.689c8.3,6.111,7.426,9.167,5.237,20.956
	c-2.182,11.789,4.37,29.255,8.733,40.17c4.37,10.915,13.971,7.852,20.956,3.489c6.985-4.363,6.552-8.733,13.971-10.481
	c7.426-1.741,10.481-6.111,13.978-15.711C99.058,70.765,92.506,67.269,83.339,69.891z"/>
</svg>
