<?xml version="1.0" encoding="utf-8"?>
<!-- Generator: Adobe Illustrator 16.0.3, SVG Export Plug-In . SVG Version: 6.00 Build 0)  -->
<!DOCTYPE svg PUBLIC "-//W3C//DTD SVG 1.1//EN" "http://www.w3.org/Graphics/SVG/1.1/DTD/svg11.dtd">
<svg version="1.1" id="Layer_1" xmlns="http://www.w3.org/2000/svg" xmlns:xlink="http://www.w3.org/1999/xlink" x="0px" y="0px"
	 width="113.386px" height="113.386px" viewBox="0 0 113.386 113.386" enable-background="new 0 0 113.386 113.386"
	 xml:space="preserve">
<path fill-rule="evenodd" clip-rule="evenodd" d="M92.556,15.989c-2.381,2.116-2.778,2.646-3.97,6.351s-1.851,5.821-3.97,3.175
	c-2.116-2.646-1.321-11.115-2.38-16.671c-1.06-5.556-4.632-7.542-7.94-4.761c-3.308,2.778-7.539,8.069-10.317,12.701
	c-2.781,4.628,1.188,5.688,4.761,4.761c3.572-0.924,2.91,8.734,2.38,15.084c-0.526,6.351,1.854,9.658,6.351,8.731
	c4.5-0.927,8.469-7.808,11.115-13.496c2.646-5.688,3.97-7.41,6.351-4.761c4.5,4.894-0.265,19.979-11.906,30.958
	c-11.645,10.982-24.743,18.393-35.722,24.61c-10.982,6.218-9.791,3.97-11.91,1.586c-2.116-2.381-5.026-1.454-9.526,3.175
	c-4.5,4.632-15.744,10.585-20.641,14.291c-4.894,3.705-0.132,9.658,4.765,8.731c4.894-0.924,8.201-4.761,14.29-7.937
	c6.086-3.175,17.33-10.32,38.897-22.227c21.564-11.91,33.606-25.935,42.073-40.487c8.47-14.555,4.632-21.17-0.794-27.786
	C99.039,5.404,95.072,13.75,92.556,15.989z"/>
</svg>
