<?xml version="1.0" encoding="utf-8"?>
<!-- Generator: Adobe Illustrator 16.0.3, SVG Export Plug-In . SVG Version: 6.00 Build 0)  -->
<!DOCTYPE svg PUBLIC "-//W3C//DTD SVG 1.1//EN" "http://www.w3.org/Graphics/SVG/1.1/DTD/svg11.dtd">
<svg version="1.1" id="Layer_1" xmlns="http://www.w3.org/2000/svg" xmlns:xlink="http://www.w3.org/1999/xlink" x="0px" y="0px"
	 width="113.386px" height="113.386px" viewBox="0 0 113.386 113.386" enable-background="new 0 0 113.386 113.386"
	 xml:space="preserve">
<path fill-rule="evenodd" clip-rule="evenodd" d="M79.973,92.71c-5.421,2.202-4.404-7.282-4.235-23.713s1.951-36.068,0-45.735
	C72.181,5.645,68.456,8.185,63.035,11.404s-3.729,5.931-9.319,6.775c-5.59,0.848-7.96-5.928-13.55-10.163
	c-5.59-4.232-7.451-5.59-11.855-5.08c-4.404,0.506-2.034,4.404,1.692,5.08c3.729,0.679,5.252,1.017,8.471,5.083
	c3.219,4.067,7.282,9.657,14.398,26.253c7.113,16.601,7.451,17.28,6.775,27.953c-0.679,10.669-0.341,18.799,0.848,29.641
	c1.186,10.842,1.861,12.875,9.315,13.55c7.454,0.679,12.027-5.08,16.09-13.55C89.967,88.479,85.394,90.509,79.973,92.71z"/>
</svg>
