<?xml version="1.0" encoding="utf-8"?>
<!-- Generator: Adobe Illustrator 16.0.3, SVG Export Plug-In . SVG Version: 6.00 Build 0)  -->
<!DOCTYPE svg PUBLIC "-//W3C//DTD SVG 1.1//EN" "http://www.w3.org/Graphics/SVG/1.1/DTD/svg11.dtd">
<svg version="1.1" id="Layer_1" xmlns="http://www.w3.org/2000/svg" xmlns:xlink="http://www.w3.org/1999/xlink" x="0px" y="0px"
	 width="113.386px" height="113.386px" viewBox="0 0 113.386 113.386" enable-background="new 0 0 113.386 113.386"
	 xml:space="preserve">
<path fill-rule="evenodd" clip-rule="evenodd" d="M90.772,24.02c-2.286-5.627-10.725-9.318-18.462-14.065
	c-7.738-4.747-10.374-6.507-14.946-7.033c-4.572-0.53-10.199,1.406-13.186,4.396c-2.991,2.987-9.144,11.78-10.549,17.582
	c-1.41,5.802,1.055,7.559-0.88,13.186c-1.936,5.627-3.341,7.387-2.637,12.309c0.701,4.922,1.406,6.857,1.757,9.669
	c0.35,2.815,0.88,2.815-0.88,5.276c-1.756,2.461-11.604,11.604-7.909,13.186c3.692,1.584,5.624-0.88,7.909-2.637
	c2.286-1.76,3.695-4.221,5.276,5.273c1.582,9.498,4.042,18.641,6.153,23.738c2.111,5.098,4.046,7.208,7.913,4.396
	c3.867-2.815,4.396-0.88,8.792-6.156c4.396-5.273,8.614-15.296,4.396-15.822c-4.221-0.529-7.387,3.341-9.673-7.913
	c-2.286-11.254-2.636-18.462-2.636-22.858c0,0,5.273-7.913,14.065-13.186c8.793-5.276,9.669-7.387,14.066-8.793
	S93.058,29.647,90.772,24.02z M56.485,40.722c-4.042,1.936-6.153,3.871-7.909,2.64c-1.76-1.23-1.231-5.802,0-8.793
	c1.23-2.987,3.516-4.396,3.516-8.789c0-4.396,2.107-7.387,7.033-4.396c4.922,2.987,2.987,0.526,3.517,5.273
	c0.526,4.747,1.406,1.935,5.273,2.64C71.785,29.998,61.879,38.143,56.485,40.722z"/>
</svg>
