<?xml version="1.0" encoding="utf-8"?>
<!-- Generator: Adobe Illustrator 16.0.3, SVG Export Plug-In . SVG Version: 6.00 Build 0)  -->
<!DOCTYPE svg PUBLIC "-//W3C//DTD SVG 1.1//EN" "http://www.w3.org/Graphics/SVG/1.1/DTD/svg11.dtd">
<svg version="1.1" id="Layer_1" xmlns="http://www.w3.org/2000/svg" xmlns:xlink="http://www.w3.org/1999/xlink" x="0px" y="0px"
	 width="113.386px" height="113.386px" viewBox="0 0 113.386 113.386" enable-background="new 0 0 113.386 113.386"
	 xml:space="preserve">
<path fill-rule="evenodd" clip-rule="evenodd" d="M86.333,102.938c-1.349-2.944-1.226-6.628-1.226-12.887
	c0-6.262-1.351-8.228,0.614-19.644c1.963-11.416,3.067-22.587,2.455-33.758c-0.614-11.169-1.838-24.968-3.684-29.461
	c-2.822-6.875-5.892-3.069-7.979-1.229c-2.085,1.843-3.192,2.702-4.296,6.139s-4.42,7.243-7.365,10.435
	c-2.947,3.191-3.929,0.736-3.684-1.841c0.247-2.58-0.123-5.646-1.841-7.979c-1.718-2.332-3.684-3.806-6.139-2.455
	c-2.455,1.349-7.854,7.243-9.206,7.979c-1.352,0.737-0.859-3.929-1.229-7.367c-0.367-3.437-4.541-2.7-6.136-3.682
	c-1.596-0.981-2.333-3.806-4.91-4.296c-2.577-0.491-5.647,2.208-7.979,4.91c-2.333,2.7,0.49,4.296,3.069,5.524
	c2.578,1.227,3.804,14.73,4.296,22.71c0.492,7.979,3.192,8.714,6.75,7.365c3.562-1.352,4.91-6.998,5.524-9.208
	c3.192-5.647,1.966-11.294,5.524-12.89c3.559-1.596,2.578,5.646,3.07,13.504c0.489,7.856,3.437,5.402,6.75,3.684
	c3.314-1.719,7.243-6.261,8.594-9.82c1.349-3.562,4.051-5.524,6.751-4.912c2.702,0.614,0.614,18.291,0.614,31.918
	c0,13.626-0.245,37.687,1.227,46.647c1.473,8.962,8.349,9.084,12.889,7.365C93.332,107.973,87.685,105.885,86.333,102.938z"/>
</svg>
