<?xml version="1.0" encoding="utf-8"?>
<!-- Generator: Adobe Illustrator 16.0.3, SVG Export Plug-In . SVG Version: 6.00 Build 0)  -->
<!DOCTYPE svg PUBLIC "-//W3C//DTD SVG 1.1//EN" "http://www.w3.org/Graphics/SVG/1.1/DTD/svg11.dtd">
<svg version="1.1" id="Layer_1" xmlns="http://www.w3.org/2000/svg" xmlns:xlink="http://www.w3.org/1999/xlink" x="0px" y="0px"
	 width="113.386px" height="113.386px" viewBox="0 0 113.386 113.386" enable-background="new 0 0 113.386 113.386"
	 xml:space="preserve">
<path fill-rule="evenodd" clip-rule="evenodd" d="M95.696,50.293c-0.96-13.303-0.96-26.605-2.312-35.86
	C92.033,5.178,88.757,3.056,84.13,2.862c-4.627-0.193-10.413,3.469-17.356,6.943c-6.938,3.469-6.359,3.083-8.097,11.566
	c-1.737,8.487-0.772,4.241-3.469,8.101c-2.702,3.855-5.978,0-9.254-5.785c-3.281-5.785-3.281-14.461-5.785-18.509
	C37.659,1.13,32.26,2.862,27.44,6.332c-4.82,3.474-7.904,8.294-10.408,12.729c-2.509,4.435-2.702,4.82,1.153,5.786
	c3.86,0.96,2.702,0.767,5.786,4.627c3.088,3.855,4.627,15.421,6.943,24.294c2.311,8.869,1.158,10.22,6.938,11.566
	c5.785,1.351,9.641-1.54,11.57-5.785c1.93-4.241,5.206-6.938,8.097-12.724c2.895-5.785,2.123-12.338,4.627-12.724
	c2.509-0.386,5.207,2.504,6.943,9.254c1.732,6.746,1.351,22.171,5.785,33.549c4.435,11.373,5.207,21.014,4.627,26.606
	s2.118,7.522,6.938,6.943c4.82-0.579,5.786,0.772,9.255-2.316c3.474-3.083,1.544-10.987,2.316-21.978
	C98.784,75.167,96.661,63.601,95.696,50.293z"/>
</svg>
