<?xml version="1.0" encoding="utf-8"?>
<!-- Generator: Adobe Illustrator 16.0.3, SVG Export Plug-In . SVG Version: 6.00 Build 0)  -->
<!DOCTYPE svg PUBLIC "-//W3C//DTD SVG 1.1//EN" "http://www.w3.org/Graphics/SVG/1.1/DTD/svg11.dtd">
<svg version="1.1" id="Layer_1" xmlns="http://www.w3.org/2000/svg" xmlns:xlink="http://www.w3.org/1999/xlink" x="0px" y="0px"
	 width="113.386px" height="113.386px" viewBox="0 0 113.386 113.386" enable-background="new 0 0 113.386 113.386"
	 xml:space="preserve">
<path fill-rule="evenodd" clip-rule="evenodd" d="M110.074,72.122c-1.008-8.026-7.7-15.726-11.716-25.093
	c-4.01-9.368,2.682-14.392-6.692-25.1c-9.367-10.702-19.068-5.018-26.768,3.349c-7.693,8.367-18.401,8.367-18.401,8.367
	c0-23.092-10.375-23.759-18.408-20.076C20.062,17.244,12.696,24.61,6.344,30.295c-6.358,5.691-3.016,10.708,1.668,13.384
	c4.684,2.682,5.357,1.675,8.367,10.042c3.016,8.367,0,23.759,1.675,38.477c1.674,14.725,15.726,8.367,20.076,5.024
	c4.35-3.35,8.367-9.708,10.042-16.733c1.668-7.026,2.342-20.41,6.692-28.443c4.35-8.026,12.376-5.017,15.052,6.692
	c2.683,11.716,3.683,26.435,8.367,36.81c4.684,10.375,24.426,0.667,28.442-3.35C110.741,88.188,111.074,80.154,110.074,72.122z"/>
</svg>
