<?xml version="1.0" encoding="utf-8"?>
<!-- Generator: Adobe Illustrator 16.0.3, SVG Export Plug-In . SVG Version: 6.00 Build 0)  -->
<!DOCTYPE svg PUBLIC "-//W3C//DTD SVG 1.1//EN" "http://www.w3.org/Graphics/SVG/1.1/DTD/svg11.dtd">
<svg version="1.1" id="Layer_1" xmlns="http://www.w3.org/2000/svg" xmlns:xlink="http://www.w3.org/1999/xlink" x="0px" y="0px"
	 width="113.386px" height="113.386px" viewBox="0 0 113.386 113.386" enable-background="new 0 0 113.386 113.386"
	 xml:space="preserve">
<path fill-rule="evenodd" clip-rule="evenodd" d="M106.343,47.992c-0.286-10.283-25.72-35.431-34.287-42.86
	c-8.574-7.43-20.837,5.085-32.578,10.289c-20,8.859-29.432,25.142-32.571,34.288c-3.146,9.145,2.282,21.716,6.858,30.861
	c4.569,9.146,9.996,16.854,20.572,25.713c10.568,8.86,25.999,1.717,36.002-1.716c9.997-3.425,25.428-17.712,32.571-25.713
	C110.055,70.853,106.629,58.282,106.343,47.992z M75.749,78.854c-3.433,2.288-4.569,4.855-17.147-5.142
	C46.031,63.709,38.887,54.85,36.313,47.992c-2.567-6.857,4.291-16.567,13.715-10.283c7.262,4.835,20.58,14.573,24.004,23.998
	C77.465,71.139,79.174,76.566,75.749,78.854z"/>
</svg>
