<?xml version="1.0" encoding="utf-8"?>
<!-- Generator: Adobe Illustrator 16.0.3, SVG Export Plug-In . SVG Version: 6.00 Build 0)  -->
<!DOCTYPE svg PUBLIC "-//W3C//DTD SVG 1.1//EN" "http://www.w3.org/Graphics/SVG/1.1/DTD/svg11.dtd">
<svg version="1.1" id="Layer_1" xmlns="http://www.w3.org/2000/svg" xmlns:xlink="http://www.w3.org/1999/xlink" x="0px" y="0px"
	 width="113.386px" height="113.386px" viewBox="0 0 113.386 113.386" enable-background="new 0 0 113.386 113.386"
	 xml:space="preserve">
<path fill-rule="evenodd" clip-rule="evenodd" d="M108.986,42.017c-3.491-10.653-12.222-13.445-17.811-15.717
	c-5.584-2.268-10.299-3.317-12.571-1.044c-2.268,2.268-7.682,7.682-8.381,13.616c-0.699,5.938-8.812,13.577-12.571,11.526
	c-5.763-3.142-7.332-9.604-10.474-15.717c-3.146-6.109-10.128-8.031-16.766-9.425c-6.633-1.398-8.556,3.491-12.571,8.381
	C13.826,38.525,8.412,44.459,5.27,48.3S2.303,63.318,4.222,68.208c1.922,4.89,12.571,12.571,22,15.713s23.049-6.109,27.24-9.43
	c4.19-3.316,4.19-7.157,7.332-5.234c3.146,1.918,3.496,7.856,7.336,13.615c3.841,5.764,12.746,7.162,17.811,6.288
	c5.06-0.874,11.697-6.808,17.81-14.669C109.86,66.634,112.481,52.665,108.986,42.017z M32.51,62.968
	C23.954,58.953,19.065,51.446,20.987,48.3c1.918-3.142-1.398-3.316,4.19-1.044c5.584,2.268,12.921,9.076,13.616,12.571
	C39.493,63.318,41.065,66.984,32.51,62.968z M88.034,69.256c-5.414-5.938-8.031-9.255-8.381-12.576c-0.35-3.316,0-8.381,6.288-5.235
	c5.588,2.792,7.332,10.299,7.332,13.616C93.273,68.382,93.448,75.19,88.034,69.256z"/>
</svg>
