<?xml version="1.0" encoding="utf-8"?>
<!-- Generator: Adobe Illustrator 16.0.3, SVG Export Plug-In . SVG Version: 6.00 Build 0)  -->
<!DOCTYPE svg PUBLIC "-//W3C//DTD SVG 1.1//EN" "http://www.w3.org/Graphics/SVG/1.1/DTD/svg11.dtd">
<svg version="1.1" id="Layer_1" xmlns="http://www.w3.org/2000/svg" xmlns:xlink="http://www.w3.org/1999/xlink" x="0px" y="0px"
	 width="113.386px" height="113.386px" viewBox="0 0 113.386 113.386" enable-background="new 0 0 113.386 113.386"
	 xml:space="preserve">
<path fill-rule="evenodd" clip-rule="evenodd" d="M76.806,18.477c-2.642-6.418-1.383-7.008,0.756-10.571
	c2.264-3.776,0.19-6.04-6.04-3.776C65.294,6.394,59.82,15.645,54.911,18.477c-4.906,2.83-5.662-5.475-9.816-12.083
	c-4.15-6.605-8.492-2.452-12.08,0c-3.585,2.455-3.208,4.91-1.509,9.816c1.699,4.909,4.719,13.779,6.04,27.183
	c1.321,13.401-0.378,54.36,0,61.911s6.605,6.418,7.548,0c0.946-6.418,3.776-36.808,3.776-46.811s5.662-9.628,9.815-9.816
	c4.154-0.187,6.418-0.943,13.592-3.776c7.173-2.829,9.06-5.097,10.568-9.815C84.357,30.367,79.451,24.895,76.806,18.477z
	 M63.218,37.353c-3.966,1.508-11.515,0.187-10.571-3.776c0.943-3.963,6.23-15.1,9.06-12.08c0,0,0.565,6.228,2.264,9.06
	C65.669,33.386,67.181,35.842,63.218,37.353z"/>
</svg>
