<?xml version="1.0" encoding="utf-8"?>
<!-- Generator: Adobe Illustrator 16.0.3, SVG Export Plug-In . SVG Version: 6.00 Build 0)  -->
<!DOCTYPE svg PUBLIC "-//W3C//DTD SVG 1.1//EN" "http://www.w3.org/Graphics/SVG/1.1/DTD/svg11.dtd">
<svg version="1.1" id="Layer_1" xmlns="http://www.w3.org/2000/svg" xmlns:xlink="http://www.w3.org/1999/xlink" x="0px" y="0px"
	 width="113.386px" height="113.386px" viewBox="0 0 113.386 113.386" enable-background="new 0 0 113.386 113.386"
	 xml:space="preserve">
<path fill-rule="evenodd" clip-rule="evenodd" d="M75.875,14.521C71.5,3.854,61.245,2.486,53.998,2.897
	c-7.247,0.409-12.992,5.194-16.408,7.52c-3.419,2.326-2.462,4.104-0.685,7.52c1.778,3.419,6.426,17.368,7.52,32.819
	s-4.648,49.908-4.101,56.062c0.545,6.154,3.417,3.647,3.417,0s3.191-6.61,5.469-17.777c2.281-11.167,7.088-40.961,8.207-44.439
	c1.23-3.828,6.29-2.326,9.57-3.419c3.282-1.093,4.788-4.376,7.522-7.52C77.244,30.517,80.251,25.184,75.875,14.521z M62.202,32.294
	c-2.326,0.821-3.964,0.548-5.469-6.154c-1.505-6.699-3.967-8.065-2.05-10.254c1.914-2.187,2.734-1.094,4.785,1.369
	c2.982,3.578,4.24,6.015,4.785,9.57C64.8,30.38,64.528,31.474,62.202,32.294z"/>
</svg>
