<?xml version="1.0" encoding="utf-8"?>
<!-- Generator: Adobe Illustrator 16.0.3, SVG Export Plug-In . SVG Version: 6.00 Build 0)  -->
<!DOCTYPE svg PUBLIC "-//W3C//DTD SVG 1.1//EN" "http://www.w3.org/Graphics/SVG/1.1/DTD/svg11.dtd">
<svg version="1.1" id="Layer_1" xmlns="http://www.w3.org/2000/svg" xmlns:xlink="http://www.w3.org/1999/xlink" x="0px" y="0px"
	 width="113.386px" height="113.386px" viewBox="0 0 113.386 113.386" enable-background="new 0 0 113.386 113.386"
	 xml:space="preserve">
<path fill-rule="evenodd" clip-rule="evenodd" d="M72.656,6.718c-3.925-4.45-8.379-4.974-11.521-2.093s-4.974,12.569-10.476,12.569
	c-5.498,0-10.212,3.665-16.758,10.476c-6.547,6.807-9.428,16.758-2.093,27.23c7.331,10.476,21.732,4.714,26.186,1.048
	c4.45-3.665,4.974,0.265,8.379,12.569c3.405,12.309,1.308,28.807-2.097,32.473c-3.401,3.665,3.146,6.546,10.476,8.379
	c7.331,1.833,7.595,1.568,7.331-1.048c-0.26-2.617,1.048-33.781,2.097-40.852C90.462,27.67,77.894,12.655,72.656,6.718z
	 M60.087,44.429c-1.568,4.19-2.617,3.926-6.282,2.093c-3.666-1.833-8.379-11.26-5.238-18.851c1.048-3.145,3.666-5.762,7.331-1.048
	C59.495,31.242,61.66,40.239,60.087,44.429z"/>
</svg>
