<?xml version="1.0" encoding="utf-8"?>
<!-- Generator: Adobe Illustrator 16.0.3, SVG Export Plug-In . SVG Version: 6.00 Build 0)  -->
<!DOCTYPE svg PUBLIC "-//W3C//DTD SVG 1.1//EN" "http://www.w3.org/Graphics/SVG/1.1/DTD/svg11.dtd">
<svg version="1.1" id="Layer_1" xmlns="http://www.w3.org/2000/svg" xmlns:xlink="http://www.w3.org/1999/xlink" x="0px" y="0px"
	 width="113.386px" height="113.386px" viewBox="0 0 113.386 113.386" enable-background="new 0 0 113.386 113.386"
	 xml:space="preserve">
<path fill-rule="evenodd" clip-rule="evenodd" d="M103.006,6.754C90.818,9.618,77.639,29.257,73.543,37.848
	c-4.089,8.591-9.816,12.687-13.093,4.908c-3.27-7.772-9.816-19.227-19.64-27.824c-9.816-8.591-22.91,2.458-27.825,6.547
	c-4.908,4.096-11.748,6.733-9.816,16.37c2.864,14.319,12.274,2.458,18.001,11.455c5.728,9.004,11.455,22.097,21.278,40.917
	c9.823,18.827,13.093,17.189,21.278,16.37c8.185-0.819,12.687-8.185,18.001-13.093c5.321-4.908,3.276-13.912,3.276-37.647
	c0-23.729,19.633-33.545,24.548-42.549C112.01,8.799,109.965,5.116,103.006,6.754z"/>
</svg>
