<?xml version="1.0" encoding="utf-8"?>
<!-- Generator: Adobe Illustrator 16.0.3, SVG Export Plug-In . SVG Version: 6.00 Build 0)  -->
<!DOCTYPE svg PUBLIC "-//W3C//DTD SVG 1.1//EN" "http://www.w3.org/Graphics/SVG/1.1/DTD/svg11.dtd">
<svg version="1.1" id="Layer_1" xmlns="http://www.w3.org/2000/svg" xmlns:xlink="http://www.w3.org/1999/xlink" x="0px" y="0px"
	 width="113.386px" height="113.386px" viewBox="0 0 113.386 113.386" enable-background="new 0 0 113.386 113.386"
	 xml:space="preserve">
<path fill-rule="evenodd" clip-rule="evenodd" d="M93.689,61.429c-9.246-2.022-24.286-4.557-32.361-9.246
	c-8.959-5.202-2.888-10.977,1.157-19.649c4.044-8.667-5.201-18.779-10.403-25.424S42.544,2.774,33.59,5.953
	c-8.959,3.179-17.918,11.269-23.115,17.335c-5.202,6.071-0.579,13.582,0,23.12c0.574,9.532-1.735,9.246-5.78,12.712
	c-4.045,3.466,0.578,5.78,4.623,6.937c4.044,1.152,2.887,2.596,1.157,5.775c-1.735,3.179-0.292,6.645,2.309,8.094
	c2.601,1.444,3.466,9.246,3.466,21.958s5.78,9.246,11.56,3.466c5.78-5.775,3.758-11.268,6.932-24.271
	c3.179-12.999,4.336-12.134,11.56-9.246c7.224,2.892,12.138,2.892,30.052,6.936c17.914,4.045,22.828-1.443,31.204-9.245
	C115.939,61.72,102.935,63.456,93.689,61.429z M37.056,42.937c-5.488-7.51-2.888-10.403-5.78-15.026
	c-2.888-4.623,2.313-8.376,6.937-3.466c3.96,4.209,6.932,8.667,8.089,13.869C47.459,43.515,42.544,50.452,37.056,42.937z"/>
</svg>
