<?xml version="1.0" encoding="utf-8"?>
<!-- Generator: Adobe Illustrator 16.0.3, SVG Export Plug-In . SVG Version: 6.00 Build 0)  -->
<!DOCTYPE svg PUBLIC "-//W3C//DTD SVG 1.1//EN" "http://www.w3.org/Graphics/SVG/1.1/DTD/svg11.dtd">
<svg version="1.1" id="Layer_1" xmlns="http://www.w3.org/2000/svg" xmlns:xlink="http://www.w3.org/1999/xlink" x="0px" y="0px"
	 width="113.386px" height="113.386px" viewBox="0 0 113.386 113.386" enable-background="new 0 0 113.386 113.386"
	 xml:space="preserve">
<path fill-rule="evenodd" clip-rule="evenodd" d="M67.207,44.999c-1.208-0.241-2.382-0.512-3.521-0.811
	c-20.562-5.402-29.778-19.578-12.03-17.564c14.135,0.702,12.726,15.551,12.726,15.551l9.896,2.825c0,0,12.254-12.484,11.311-24.036
	C84.645,9.417,61.552-4.011,46.001,6.828C30.445,17.667,19.606,15.78,13.479,30.864c-6.127,15.079,7.07,25.917,12.726,29.692
	c7.83,5.218,22.27,8.129,35.347,9.895c13.077,1.766,25.803,14.848,14.141,19.796c-11.667,4.948-20.855,3.532-25.452-1.415
	c-4.597-4.948-9.895-8.837-12.726-9.896c-2.825-1.064-2.825-11.311-2.825-11.311s-8.836-4.597-15.556,7.065
	c-6.714,11.667-7.421,22.978,19.796,32.522c27.217,9.544,53.371-2.123,60.798-25.452C107.151,58.433,90.185,49.596,67.207,44.999z"
	/>
</svg>
