<?xml version="1.0" encoding="utf-8"?>
<!-- Generator: Adobe Illustrator 16.0.3, SVG Export Plug-In . SVG Version: 6.00 Build 0)  -->
<!DOCTYPE svg PUBLIC "-//W3C//DTD SVG 1.1//EN" "http://www.w3.org/Graphics/SVG/1.1/DTD/svg11.dtd">
<svg version="1.1" id="Layer_1" xmlns="http://www.w3.org/2000/svg" xmlns:xlink="http://www.w3.org/1999/xlink" x="0px" y="0px"
	 width="113.386px" height="113.386px" viewBox="0 0 113.386 113.386" enable-background="new 0 0 113.386 113.386"
	 xml:space="preserve">
<path fill-rule="evenodd" clip-rule="evenodd" d="M64.957,28.556c1.822,5.33,1.303,25.595,0.651,31.883
	c-0.651,6.291,1.303,8.894,7.157,9.111c5.856,0.217,9.328,0.868,3.905,3.254c-5.422,2.385-12.362-0.651-13.013,4.554
	c-0.651,5.206-0.217,18.436-1.952,24.727c-1.737,6.291-1.628,8.621-3.254,8.459c-1.628-0.162-4.231-5.37-4.557-10.411
	c-0.323-5.044-0.487-24.727-0.648-28.632c-0.164-3.903-0.651-6.995-8.459-6.505c-7.808,0.487-13.829,3.903-11.062,0
	c2.764-3.905,11.224-6.344,18.219-6.508c-0.162-13.013-1.951-24.727-2.603-29.932c-0.651-5.205,1.79-6.18,6.508-11.71
	c4.715-5.531,12.2-11.552,16.267-13.016c4.067-1.464,5.367-2.113,7.157,3.905c1.79,6.019,1.464,13.014-1.951,13.665
	s-5.37-3.741-7.159-7.157c-1.788-3.418-2.926-2.767-5.206,0.648C62.68,18.31,62.68,21.886,64.957,28.556z"/>
</svg>
