<?xml version="1.0" encoding="utf-8"?>
<!-- Generator: Adobe Illustrator 16.0.3, SVG Export Plug-In . SVG Version: 6.00 Build 0)  -->
<!DOCTYPE svg PUBLIC "-//W3C//DTD SVG 1.1//EN" "http://www.w3.org/Graphics/SVG/1.1/DTD/svg11.dtd">
<svg version="1.1" id="Layer_1" xmlns="http://www.w3.org/2000/svg" xmlns:xlink="http://www.w3.org/1999/xlink" x="0px" y="0px"
	 width="113.386px" height="113.386px" viewBox="0 0 113.386 113.386" enable-background="new 0 0 113.386 113.386"
	 xml:space="preserve">
<path fill-rule="evenodd" clip-rule="evenodd" d="M69.376,28.985c-5.939-4.157-4.553-5.545,0.792-13.463
	c5.346-7.92-10.875-11.088-16.63-11.088c-2.575,0-5.542,0.596-7.92,2.375c-2.375,1.782-3.76,0.992-4.75-0.79
	s-2.179-3.367-7.128-3.167c-4.95,0.197-5.939-0.2-6.335,11.085c-0.396,11.284,3.364,69.888,3.96,80.777
	c0.593,10.888,4.157,15.837,7.917,15.837c3.764,0,3.96-7.524,5.545-13.462c1.582-5.939,18.212-18.609,27.715-28.508
	c9.502-9.899,13.266-18.216,13.463-23.758C86.207,39.28,75.315,33.142,69.376,28.985z M66.038,70.992
	c-10.492,8.91-14.056,13.463-16.631,15.841C46.833,89.208,44.658,90,44.658,90S41.687,82.28,41.49,65.45
	c-0.109-9.251-0.703-22.228-0.792-30.883c-0.078-7.089-0.229-10.82,3.96-11.088c4.35-0.277,14.252-0.2,11.085,3.96
	c-3.167,4.157-12.078,13.263-5.542,17.42c6.532,4.16,10.492,5.546,16.63,9.506C72.969,58.322,76.53,62.086,66.038,70.992z"/>
</svg>
