<?xml version="1.0" encoding="utf-8"?>
<!-- Generator: Adobe Illustrator 16.0.3, SVG Export Plug-In . SVG Version: 6.00 Build 0)  -->
<!DOCTYPE svg PUBLIC "-//W3C//DTD SVG 1.1//EN" "http://www.w3.org/Graphics/SVG/1.1/DTD/svg11.dtd">
<svg version="1.1" id="Layer_1" xmlns="http://www.w3.org/2000/svg" xmlns:xlink="http://www.w3.org/1999/xlink" x="0px" y="0px"
	 width="113.386px" height="113.386px" viewBox="0 0 113.386 113.386" enable-background="new 0 0 113.386 113.386"
	 xml:space="preserve">
<g>
	<path fill-rule="evenodd" clip-rule="evenodd" d="M74.846,9.945c8.246,2.932,13.909,4.921,19.682,8.556
		c5.777,3.639,4.496,10.914,0.857,15.406c-3.636,4.492-6.63,9.841-9.413,11.983c-2.782,2.138,0.212,2.138,7.703,4.28
		c7.487,2.138,22.677,8.985,14.549,23.106c-8.131,14.121-18.188,21.183-28.242,26.532c-10.057,5.349-9.416,5.562-11.983,6.846
		c-2.566,1.282-5.136-1.368,0.857-5.136c5.99-3.765,18.143-14.379,23.105-20.54c4.966-6.164,0.345-10.44-11.979-15.406
		c-12.324-4.962-20.542-10.952-6.85-20.539c13.696-9.587,9.928-11.638,2.57-16.259c-7.362-4.625-13.352-3.423-17.116-5.993
		c-3.768-2.567-0.174-8.215,3.423-11.979C65.604,7.034,67.143,7.204,74.846,9.945z"/>
	<path fill-rule="evenodd" clip-rule="evenodd" d="M19.218,6.522c8.783,0.947,24.133,7.874,29.952,12.836
		c5.819,4.966,9.242,7.874,2.566,13.693c-6.672,5.823-15.062,9.417-8.556,12.84c6.505,3.423,18.042,7.888,16.259,24.819
		c-1.369,13.007-8.386,16.604-12.836,22.253c-3.75,4.757-9.929,3.594-4.28-4.28c5.648-7.874,1.713-20.884-5.99-26.532
		c-4.45-2.908-7.532-1.71-13.692-1.71c-6.164,0-7.822-4.851-2.57-10.27c5.307-5.478,11.983-9.758,15.406-12.839
		c3.423-3.082,1.884-4.621-2.566-6.846c-4.451-2.225-12.324-6.16-15.406-7.703c-3.082-1.539-4.45,1.713-5.99,5.136
		c-1.542,3.423-4.792,6.16-6.846,5.99s-2.445-7.021-0.857-12.836C5.867,13.539,8.092,5.324,19.218,6.522z"/>
</g>
</svg>
