<?xml version="1.0" encoding="utf-8"?>
<!-- Generator: Adobe Illustrator 16.0.3, SVG Export Plug-In . SVG Version: 6.00 Build 0)  -->
<!DOCTYPE svg PUBLIC "-//W3C//DTD SVG 1.1//EN" "http://www.w3.org/Graphics/SVG/1.1/DTD/svg11.dtd">
<svg version="1.1" id="Layer_1" xmlns="http://www.w3.org/2000/svg" xmlns:xlink="http://www.w3.org/1999/xlink" x="0px" y="0px"
	 width="113.386px" height="113.386px" viewBox="0 0 113.386 113.386" enable-background="new 0 0 113.386 113.386"
	 xml:space="preserve">
<path fill-rule="evenodd" clip-rule="evenodd" d="M47.864,11.558c2.998,11.532-1.698,24.806,9.519,24.469
	c11.211-0.343,35.336-6.117,31.26,5.437s-11.554,9.513-21.747,10.874c-10.193,1.36-16.311,5.094-14.956,19.026
	c1.36,13.932,5.592,21.598,13.595,13.595c14.95-14.95,15.973-9.513,9.513,2.721c-6.455,12.229-13.589,15.63-23.108,20.387
	c-9.513,4.756-22.765,4.756-25.824-19.032c-3.058-23.788-2.378-57.77,2.722-70.678C33.932,5.442,43.444-5.432,47.864,11.558z"/>
</svg>
