<?xml version="1.0" encoding="utf-8"?>
<!-- Generator: Adobe Illustrator 16.0.3, SVG Export Plug-In . SVG Version: 6.00 Build 0)  -->
<!DOCTYPE svg PUBLIC "-//W3C//DTD SVG 1.1//EN" "http://www.w3.org/Graphics/SVG/1.1/DTD/svg11.dtd">
<svg version="1.1" id="Layer_1" xmlns="http://www.w3.org/2000/svg" xmlns:xlink="http://www.w3.org/1999/xlink" x="0px" y="0px"
	 width="113.386px" height="113.386px" viewBox="0 0 113.386 113.386" enable-background="new 0 0 113.386 113.386"
	 xml:space="preserve">
<path fill-rule="evenodd" clip-rule="evenodd" d="M92.933,29.715c-1.998,6.429-3.404,11.782-1.311,18.328
	s5.236,14.664,10.472,11.782c5.236-2.881,10.21-2.881,7.856,3.926c-2.359,6.807-8.639,12.565-11.782,19.638
	c-3.143,7.068-8.378,13.348-13.092,14.397c-4.714,1.044-7.851-0.522-13.087-6.546c-5.236-6.019-9.688-9.689-18.328-3.926
	c-8.64,5.758-14.664,10.211-20.943,7.851c-6.285-2.354-12.304-4.708-11.782-18.323c0.522-13.614,3.143-23.563,5.236-28.799
	s0.522-7.59-9.162-10.472C7.322,34.69-1.578,28.144,5.229,21.865c6.807-6.285,9.683-8.118,17.018-5.236
	c7.329,2.876,15.186,5.497,22.253,6.546c7.068,1.044,5.497,4.969,2.615,10.472c-2.881,5.497-6.024,18.962-3.925,27.489
	c2.621,10.642,11.787,16.421,19.633,2.615c6.163-10.839,5.763-18.85,6.546-26.179c0.789-7.329,9.428-21.731,15.708-20.943
	C91.361,17.412,95.287,22.125,92.933,29.715z"/>
</svg>
