<?xml version="1.0" encoding="utf-8"?>
<!-- Generator: Adobe Illustrator 16.0.3, SVG Export Plug-In . SVG Version: 6.00 Build 0)  -->
<!DOCTYPE svg PUBLIC "-//W3C//DTD SVG 1.1//EN" "http://www.w3.org/Graphics/SVG/1.1/DTD/svg11.dtd">
<svg version="1.1" id="Layer_1" xmlns="http://www.w3.org/2000/svg" xmlns:xlink="http://www.w3.org/1999/xlink" x="0px" y="0px"
	 width="113.386px" height="113.386px" viewBox="0 0 113.386 113.386" enable-background="new 0 0 113.386 113.386"
	 xml:space="preserve">
<path fill-rule="evenodd" clip-rule="evenodd" d="M102.506,58.739c0,0,4.089-5.864,7.107-1.775
	c3.022,4.085-1.775,11.904-7.107,15.993c-5.329,4.085-12.259,5.506-15.104,0.886c-2.841-4.62-3.908-7.816-7.993-5.329
	c-4.088,2.487-4.887,1.186-7.111,3.554c-2.22,2.368-10.216,0.741-12.436-2.665c-2.224-3.405-4.295-3.85-7.997,0
	c-3.702,3.85-4.443,4.143-7.107,6.218c-2.664,2.072-4.888,2.22-7.107,0c-2.224-2.22-2.961-2.22-4.443-3.553
	c-1.482-1.334-2.813-0.148-7.107,3.553c-4.295,3.702-5.184,4.443-7.997,6.218c-2.813,1.778-4.443-0.593-7.107-4.443
	c-2.664-3.85-3.109-20.136-1.775-25.765c1.331-5.625-1.779-6.663-4.443-7.107c-2.668-0.445-2.52-3.405,0-6.218
	c2.516-2.813,6.366-7.255,11.55-6.218c5.18,1.034,6.218,8.141,4.439,13.325c-1.775,5.184,0.297,16.438,2.668,18.658
	c2.368,2.219,2.813,0.889,4.439-2.665c1.63-3.554,5.036-12.439,3.557-16.882c-1.482-4.439,1.775-6.07,2.665-8.882
	c0.889-2.816,1.479-5.777,4.443-3.554c2.96,2.22,7.255-2.223,8.882-0.889c1.63,1.334-1.331,5.184-1.775,7.997
	c-0.444,2.813-0.593,15.989,1.775,19.543c2.371,3.557,5.777,0.741,6.221-5.329c0.441-6.07,1.182-10.216,3.554-13.325
	c2.368-3.112,6.366-6.221,9.771-3.557c3.406,2.668,3.257,11.254,4.443,15.993c1.182,4.739,0.886,6.663,6.218,6.218
	c5.332-0.441,4.739-7.107,4.443-11.546c-0.296-4.443,0.889-5.777,3.554-8.886c2.664-3.109,12.584-11.254,12.439-2.665
	c-0.148,8.586,0,19.543,0,19.543S100.139,56.075,102.506,58.739z"/>
</svg>
