<?xml version="1.0" encoding="utf-8"?>
<!-- Generator: Adobe Illustrator 16.0.3, SVG Export Plug-In . SVG Version: 6.00 Build 0)  -->
<!DOCTYPE svg PUBLIC "-//W3C//DTD SVG 1.1//EN" "http://www.w3.org/Graphics/SVG/1.1/DTD/svg11.dtd">
<svg version="1.1" id="Layer_1" xmlns="http://www.w3.org/2000/svg" xmlns:xlink="http://www.w3.org/1999/xlink" x="0px" y="0px"
	 width="113.386px" height="113.386px" viewBox="0 0 113.386 113.386" enable-background="new 0 0 113.386 113.386"
	 xml:space="preserve">
<path fill-rule="evenodd" clip-rule="evenodd" d="M87.109,18.772c-17.386-4.966-34.274,34.281-34.274,34.281
	C42.029,12.441,31.599,8.712,23.03,9.828c-8.568,1.122-20.12,7.453-19.375,19.375c14.529,0.376,19.375,20.497,22.353,41.733
	c2.983,21.237,20.49,32.783,35.772,32.783c30.55,0,45.826-29.805,47.688-49.18C111.329,35.163,104.501,23.739,87.109,18.772z
	 M66.249,81.366c-17.138-1.862,2.232-23.844,5.961-29.805c3.723-5.96,9.685-5.215,14.899,8.939
	C92.33,74.659,83.386,83.228,66.249,81.366z"/>
</svg>
