<?xml version="1.0" encoding="utf-8"?>
<!-- Generator: Adobe Illustrator 16.0.3, SVG Export Plug-In . SVG Version: 6.00 Build 0)  -->
<!DOCTYPE svg PUBLIC "-//W3C//DTD SVG 1.1//EN" "http://www.w3.org/Graphics/SVG/1.1/DTD/svg11.dtd">
<svg version="1.1" id="Layer_1" xmlns="http://www.w3.org/2000/svg" xmlns:xlink="http://www.w3.org/1999/xlink" x="0px" y="0px"
	 width="113.386px" height="113.386px" viewBox="0 0 113.386 113.386" enable-background="new 0 0 113.386 113.386"
	 xml:space="preserve">
<path fill-rule="evenodd" clip-rule="evenodd" d="M103.066,63.793c-7.253-9.014-14.111-2.351-18.812,3.919
	c-4.705,6.271-5.489,2.351-7.055-1.569C72.3,53.994,66.224,28.52,66.224,28.52c-2.743-6.663-6.465-17.048-9.405-20.381
	c-2.941-3.33-8.427-0.587-14.896-1.566C35.458,5.59,25.854,10.1,15.274,14.409C4.692,18.722,3.907,26.562,9.004,39.495
	c5.094,12.934,12.149,15.871,15.677,13.326c3.527-2.549,0.392-6.861-3.92-13.326c-4.312-6.469-0.785-16.461,14.11-17.246
	c14.892-0.785,20.184,27.433,23.513,35.273c3.333,7.84,6.274,16.461,5.49,21.947c-0.785,5.49,4.701,13.917,7.836,21.951
	s5.881,7.444,14.11,7.052c8.232-0.39,12.149-7.052,15.677-10.972c3.527-3.92,3.725-7.84,6.271-10.975
	C110.316,83.389,110.316,72.806,103.066,63.793z M94.442,95.149c-1.372,2.153-7.036,4.226-7.837-3.92
	c-0.59-5.977,0.785-10.191,1.566-13.326c0.492-1.962,1.764-7.448,5.489-1.569C97.041,81.673,98.167,90.25,94.442,95.149z"/>
</svg>
