<?xml version="1.0" encoding="utf-8"?>
<!-- Generator: Adobe Illustrator 16.0.3, SVG Export Plug-In . SVG Version: 6.00 Build 0)  -->
<!DOCTYPE svg PUBLIC "-//W3C//DTD SVG 1.1//EN" "http://www.w3.org/Graphics/SVG/1.1/DTD/svg11.dtd">
<svg version="1.1" id="Layer_1" xmlns="http://www.w3.org/2000/svg" xmlns:xlink="http://www.w3.org/1999/xlink" x="0px" y="0px"
	 width="113.386px" height="113.386px" viewBox="0 0 113.386 113.386" enable-background="new 0 0 113.386 113.386"
	 xml:space="preserve">
<path fill-rule="evenodd" clip-rule="evenodd" d="M102.458,46.912c-8.85-2.399-18.898,10.949-20.247,11.999
	c-1.352,1.05-1.501,2.401-3.002,0c-1.499-2.399-4.95-8.7-10.498-8.999c-5.551-0.299-7.65,4.949-9.75,8.248
	c-2.1,3.302-4.501,3.9-5.249,2.252c-4.651-6.9-15.001-26.847-18.001-32.249c-3-5.398-4.95-7.949-9.747-8.248
	c-4.8-0.302-14.699,1.05-18.749,1.498c-4.052,0.452-5.251,4.501-5.251,4.501s7.949,2.249,18.749,11.999s16.5,27.598,24,41.999
	c7.498,14.396,10.198,14.696,12.746,12.746c2.551-1.95,4.8-3.747,5.252-5.999c0.448-2.249,1.349-13.8,1.498-17.248
	c0.149-3.451,2.701-4.501,3.75-1.501c2.249,5.999-1.499,6.302-1.499,8.999c0,2.7,1.499,4.501,1.499,4.501s-0.75,1.65-3,4.501
	c-2.249,2.847-3.601,3.747-0.751,5.999c2.85,2.249,7.501,0,12.75-5.999c5.999,3.747,11.098,2.697,12.749,1.498s4.05-1.8,10.5-5.999
	c6.448-4.199,8.7-9.451,10.498-14.248C112.506,62.362,111.307,49.313,102.458,46.912z M91.209,76.161
	c-2.85-0.451-8.999-3.75-5.999-7.5c3-3.75,5.249-5.7,7.498-7.498c2.249-1.801,5.85-0.601,6.75,5.249
	C100.358,72.261,94.06,76.609,91.209,76.161z"/>
</svg>
