<?xml version="1.0" encoding="utf-8"?>
<!-- Generator: Adobe Illustrator 16.0.3, SVG Export Plug-In . SVG Version: 6.00 Build 0)  -->
<!DOCTYPE svg PUBLIC "-//W3C//DTD SVG 1.1//EN" "http://www.w3.org/Graphics/SVG/1.1/DTD/svg11.dtd">
<svg version="1.1" id="Layer_1" xmlns="http://www.w3.org/2000/svg" xmlns:xlink="http://www.w3.org/1999/xlink" x="0px" y="0px"
	 width="113.386px" height="113.386px" viewBox="-43.673 0 113.386 113.386" enable-background="new -43.673 0 113.386 113.386"
	 xml:space="preserve">
<path d="M31.298,18.551c-5.745-3.61-14.706,3.343-14.706,3.343S-4.134,5.515-7.478,3.175c-3.34-2.339-11.532,8.022-7.353,11.366
	c4.178,3.34,10.696,9.023,19.388,18.049c-23.566,25.234-18.585,69.396-6.687,76.213c11.901,6.823,21.796-8.422,23.4-10.026
	c1.605-1.605-0.267-3.607-2.008-2.008c-10.16,8.824-18.718,2.008-22.059-14.706C-6.139,65.349,2.017,49.571,9.905,41.952
	c3.21,4.01,9.091,11.368,18.052,10.029c8.955-1.338,13.504-8.961,14.037-18.052C42.528,24.835,37.049,22.161,31.298,18.551z
	 M31.967,39.944c-1.333-1.502-8.024-10.696-8.024-10.696C30.966,23.399,36.978,36.603,31.967,39.944z"/>
</svg>
