<?xml version="1.0" encoding="utf-8"?>
<!-- Generator: Adobe Illustrator 16.0.3, SVG Export Plug-In . SVG Version: 6.00 Build 0)  -->
<!DOCTYPE svg PUBLIC "-//W3C//DTD SVG 1.1//EN" "http://www.w3.org/Graphics/SVG/1.1/DTD/svg11.dtd">
<svg version="1.1" id="Layer_1" xmlns="http://www.w3.org/2000/svg" xmlns:xlink="http://www.w3.org/1999/xlink" x="0px" y="0px"
	 width="113.386px" height="113.386px" viewBox="0 0 113.386 113.386" enable-background="new 0 0 113.386 113.386"
	 xml:space="preserve">
<path fill-rule="evenodd" clip-rule="evenodd" d="M92.444,6.944c-6.017-3.309-7.519,1.505-10.527,6.017
	c-3.011,4.514-0.903,3.911-1.506,6.017c-0.603,2.108-4.514,8.275-4.514,8.275s-1.803-4.514-3.758-8.275
	c-1.956-3.758-0.153-4.964-2.258-9.775c-2.105-4.814-5.564-6.32-10.528-0.753c-4.964,5.564-7.672,10.98-7.522,18.05
	s2.558,6.017,6.017,0.753c3.461-5.267,4.456,0.055,6.017,10.527c0.899,6.029,7.372,7.672,10.53,3.761s8.122-10.377,14.289-18.803
	c7.972,5.417,9.928,18.353,9.025,28.581c-4.361,34.597-48.634,45.877-61.671,47.383c-13.037,1.505-16.422-1.255-23.313-6.77
	c-6.895-5.515,0-11.28,0-11.28s0.624-4.263,0.75-9.778C7.33,72.502,3.447,85.414,2.945,91.18c-0.502,5.769,0.75,10.028,3.008,12.036
	c2.255,2.004,6.203,5.074,12.033,5.264c82.167,1.316,91.58-67.089,92.507-75.211C111.522,24.271,98.46,10.255,92.444,6.944z"/>
</svg>
